<svg clip-rule="evenodd" fill-rule="evenodd" stroke-linejoin="round" stroke-miterlimit="2" viewBox="0 0 672 96" xmlns="http://www.w3.org/2000/svg"><g transform="scale(1.02775 1)"><path d="m0 0h653.855v96h-653.855z" fill="none"/><g transform="scale(.972999 1)"><path d="m151.76 74.937h-26.832v-55.38h27.066c4.68 0 8.268 1.17 10.764 3.51 2.496 2.288 3.744 5.434 3.744 9.438 0 3.328-1.066 6.292-3.198 8.892-1.176 1.471-2.618 2.775-4.327 3.912 2.179.938 3.959 2.208 5.341 3.81 2.288 2.652 3.432 6.032 3.432 10.14 0 4.836-1.352 8.658-4.056 11.466s-6.682 4.212-11.934 4.212m-14.274-45.942v14.352h12.648c1.034-.939 1.9-2.047 2.562-3.276.775-1.437 1.178-3.047 1.17-4.68 0-1.924-.494-3.458-1.482-4.602-.936-1.196-2.236-1.794-3.9-1.794zm0 22.152v14.04h11.856c1.872 0 3.276-.572 4.212-1.716.988-1.196 1.482-2.912 1.482-5.148 0-2.288-.494-4.056-1.482-5.304-.79-1.04-1.863-1.664-3.22-1.872zm53.339 5.304v18.486h-12.558v-55.38h24.726c5.668 0 9.958 1.404 12.87 4.212 2.964 2.808 4.446 6.708 4.446 11.7 0 4.212-1.118 7.904-3.354 11.076-1.454 2.077-3.346 4.062-5.676 5.955l9.42 19.473v2.964h-12.324l-9.809-18.486zm0-26.988v18.018h11.769c1.472-1.061 2.676-2.45 3.519-4.056 1.04-1.872 1.56-4.004 1.56-6.396 0-2.444-.572-4.316-1.716-5.616-1.092-1.3-2.678-1.95-4.758-1.95zm105.941 45.474h-9.594l-7.098-52.026v-3.354h12.246l4.046 31.719 8.824-22.983h5.07l8.686 22.545 4.184-31.281h12.09v3.354l-7.02 52.026h-9.828l-10.53-25.506-.195-.626-.195.626zm127.878 0h-34.242v-55.38h34.242v11.076h-21.684v12.168h19.89v8.814h-19.89v12.246h21.684zm23.352-18.486v18.486h-12.558v-55.38h24.726c5.668 0 9.958 1.404 12.87 4.212 2.964 2.808 4.446 6.708 4.446 11.7 0 4.212-1.118 7.904-3.354 11.076-1.454 2.077-3.346 4.062-5.676 5.955l9.42 19.473v2.964h-12.324l-9.809-18.486zm0-26.988v18.018h11.769c1.472-1.061 2.676-2.45 3.519-4.056 1.04-1.872 1.56-4.004 1.56-6.396 0-2.444-.572-4.316-1.716-5.616-1.092-1.3-2.678-1.95-4.758-1.95zm50.538 1.482h-13.728v-11.388h39.858v11.388h-13.572v43.992h-12.558zm48.351 25.506v18.486h-12.558v-55.38h24.726c5.668 0 9.958 1.404 12.87 4.212 2.964 2.808 4.446 6.708 4.446 11.7 0 4.212-1.118 7.904-3.354 11.076-1.454 2.077-3.346 4.062-5.676 5.955l9.42 19.473v2.964h-12.324l-9.809-18.486zm0-26.988v18.018h11.769c1.472-1.061 2.676-2.45 3.519-4.056 1.04-1.872 1.56-4.004 1.56-6.396 0-2.444-.572-4.316-1.716-5.616-1.092-1.3-2.678-1.95-4.758-1.95zm83.545 27.507-9.491 17.967h-11.778v-3.354l15.193-24.905-14.335-23.767v-3.354h12.324l10.531 17.233 9.359-17.233h11.622v3.354l-14.773 24.485 14.773 24.187v3.354h-12.402zm-379.474 18.747c-4.888 0-8.996-.936-12.324-2.808-3.276-1.872-5.772-4.888-7.488-9.048s-2.574-9.672-2.574-16.536c0-6.916.858-12.454 2.574-16.614 1.716-4.212 4.212-7.254 7.488-9.126 3.328-1.872 7.436-2.808 12.324-2.808s8.944.936 12.168 2.808c3.277 1.872 5.773 4.914 7.489 9.126 1.767 4.16 2.65 9.698 2.651 16.614 0 6.812-.858 12.298-2.574 16.458-1.715 4.16-4.237 7.202-7.566 9.126-3.275 1.872-7.331 2.808-12.168 2.808m0-9.984c2.08 0 3.822-.494 5.226-1.482 1.404-1.04 2.496-2.886 3.276-5.538.832-2.704 1.248-6.5 1.248-11.388 0-4.836-.416-8.606-1.248-11.31-.78-2.756-1.872-4.654-3.276-5.694-1.404-1.092-3.146-1.612-5.226-1.56-2.184.052-4.004.598-5.46 1.638-1.404.988-2.496 2.834-3.276 5.538-.728 2.704-1.092 6.5-1.092 11.388s.39 8.684 1.17 11.388 1.872 4.55 3.276 5.538c1.456.988 3.25 1.482 5.382 1.482m108.157 9.984c-3.068 0-6.032-.208-8.892-.624-2.789-.361-5.552-.908-8.268-1.638l2.106-9.36c2.292.573 4.608 1.041 6.942 1.404 2.392.312 4.706.468 6.942.468 3.588 0 6.136-.494 7.644-1.482 1.56-1.04 2.34-2.574 2.34-4.602-.001-.728-.161-1.446-.468-2.106-.312-.676-.806-1.3-1.482-1.872-.624-.572-1.404-1.118-2.34-1.638-.052-.052-.104-.078-.156-.078h-.156l-10.608-6.006c-.175-.115-.358-.22-.546-.312-.145-.098-.302-.177-.468-.234-3.016-1.716-5.382-3.588-7.098-5.616-1.716-2.08-2.574-4.784-2.574-8.112 0-3.068.832-5.72 2.496-7.956 1.716-2.288 4.186-4.056 7.41-5.304 3.276-1.248 7.202-1.872 11.778-1.872 2.652 0 5.304.156 7.956.468 2.704.312 5.278.78 7.722 1.404l-2.106 9.36c-2.059-.474-4.142-.838-6.24-1.092-2.08-.26-4.056-.39-5.928-.39-2.236 0-4.134.208-5.694.624-1.508.364-2.652.988-3.432 1.872-.728.832-1.092 1.872-1.092 3.12 0 1.092.234 2.002.702 2.73.52.676 1.378 1.352 2.574 2.028.052 0 .078.026.078.078.052.052.104.078.156.078l11.232 5.85c2.496 1.196 4.55 2.548 6.162 4.056 1.612 1.456 2.834 3.12 3.666 4.992.884 1.82 1.326 3.874 1.326 6.162 0 4.992-1.872 8.84-5.616 11.544s-9.1 4.056-16.068 4.056m228.248-.78v-55.38h12.558v55.38z" fill="#14122d"/><path d="m81.399 51.084c-.363.159-.599.52-.599.916s.236.757.599.916c3.884 1.699 6.601 5.577 6.601 10.084s-2.717 8.385-6.601 10.084c-.363.159-.599.52-.599.916s.236.757.599.916c3.884 1.699 6.601 5.577 6.601 10.084 0 6.071-4.929 11-11 11-4.507 0-8.385-2.717-10.084-6.601-.159-.363-.52-.599-.916-.599s-.757.236-.916.599c-1.699 3.884-5.577 6.601-10.084 6.601s-8.385-2.717-10.084-6.601c-.159-.363-.52-.599-.916-.599s-.757.236-.916.599c-1.699 3.884-5.577 6.601-10.084 6.601s-8.385-2.717-10.084-6.601c-.159-.363-.52-.599-.916-.599s-.757.236-.916.599c-1.699 3.884-5.577 6.601-10.084 6.601-6.071 0-11-4.929-11-11 0-4.507 2.717-8.385 6.601-10.084.363-.159.599-.52.599-.916s-.236-.757-.599-.916c-3.884-1.699-6.601-5.577-6.601-10.084s2.717-8.385 6.601-10.084c.363-.159.599-.52.599-.916s-.236-.757-.599-.916c-3.884-1.699-6.601-5.577-6.601-10.084 0-6.071 4.929-11 11-11 4.507 0 8.385 2.717 10.084 6.601.159.363.52.599.916.599s.757-.236.916-.599c1.699-3.884 5.577-6.601 10.084-6.601s8.385 2.717 10.084 6.601c.159.363.52.599.916.599s.757-.236.916-.599c1.699-3.884 5.577-6.601 10.084-6.601s8.385 2.717 10.084 6.601c.159.363.52.599.916.599s.757-.236.916-.599c1.699-3.884 5.577-6.601 10.084-6.601 6.071 0 11 4.929 11 11 0 4.507-2.717 8.385-6.601 10.084m-58.483-5.685c-.159-.363-.52-.599-.916-.599s-.757.236-.916.599c-1.114 2.54-3.145 4.571-5.685 5.685-.363.159-.599.52-.599.916s.236.757.599.916c2.54 1.114 4.571 3.145 5.685 5.685.159.363.52.599.916.599s.757-.236.916-.599c1.114-2.54 3.145-4.571 5.685-5.685.363-.159.599-.52.599-.916s-.236-.757-.599-.916c-2.54-1.114-4.571-3.145-5.685-5.685m44 22c-.159-.363-.52-.599-.916-.599s-.757.236-.916.599c-1.114 2.54-3.145 4.571-5.685 5.685-.363.159-.599.52-.599.916s.236.757.599.916c2.54 1.114 4.571 3.145 5.685 5.685.159.363.52.599.916.599s.757-.236.916-.599c1.114-2.54 3.145-4.571 5.685-5.685.363-.159.599-.52.599-.916s-.236-.757-.599-.916c-2.54-1.114-4.571-3.145-5.685-5.685m0-22c-.159-.363-.52-.599-.916-.599s-.757.236-.916.599c-1.114 2.54-3.145 4.571-5.685 5.685-.363.159-.599.52-.599.916s.236.757.599.916c2.54 1.114 4.571 3.145 5.685 5.685.159.363.52.599.916.599s.757-.236.916-.599c1.114-2.54 3.145-4.571 5.685-5.685.363-.159.599-.52.599-.916s-.236-.757-.599-.916c-2.54-1.114-4.571-3.145-5.685-5.685m-22 0c-.159-.363-.52-.599-.916-.599s-.757.236-.916.599c-1.114 2.54-3.145 4.571-5.685 5.685-.363.159-.599.52-.599.916s.236.757.599.916c2.54 1.114 4.571 3.145 5.685 5.685.159.363.52.599.916.599s.757-.236.916-.599c1.114-2.54 3.145-4.571 5.685-5.685.363-.159.599-.52.599-.916s-.236-.757-.599-.916c-2.54-1.114-4.571-3.145-5.685-5.685m-22 22c-.159-.363-.52-.599-.916-.599s-.757.236-.916.599c-1.114 2.54-3.145 4.571-5.685 5.685-.363.159-.599.52-.599.916s.236.757.599.916c2.54 1.114 4.571 3.145 5.685 5.685.159.363.52.599.916.599s.757-.236.916-.599c1.114-2.54 3.145-4.571 5.685-5.685.363-.159.599-.52.599-.916s-.236-.757-.599-.916c-2.54-1.114-4.571-3.145-5.685-5.685m22 0c-.159-.363-.52-.599-.916-.599s-.757.236-.916.599c-1.114 2.54-3.145 4.571-5.685 5.685-.363.159-.599.52-.599.916s.236.757.599.916c2.54 1.114 4.571 3.145 5.685 5.685.159.363.52.599.916.599s.757-.236.916-.599c1.114-2.54 3.145-4.571 5.685-5.685.363-.159.599-.52.599-.916s-.236-.757-.599-.916c-2.54-1.114-4.571-3.145-5.685-5.685" fill="#4d7c0f"/><path d="m66.916 15.399c-.159-.363-.52-.599-.916-.599s-.757.236-.916.599c-1.699 3.884-5.577 6.601-10.084 6.601s-8.385-2.717-10.084-6.601c-.159-.363-.52-.599-.916-.599s-.757.236-.916.599c-1.699 3.884-5.577 6.601-10.084 6.601s-8.385-2.717-10.084-6.601c-.159-.363-.52-.599-.916-.599s-.757.236-.916.599c-1.699 3.884-5.577 6.601-10.084 6.601-6.071 0-11-4.929-11-11s4.929-11 11-11c4.507 0 8.385 2.717 10.084 6.601.159.363.52.599.916.599s.757-.236.916-.599c1.699-3.884 5.577-6.601 10.084-6.601s8.385 2.717 10.084 6.601c.159.363.52.599.916.599s.757-.236.916-.599c1.699-3.884 5.577-6.601 10.084-6.601s8.385 2.717 10.084 6.601c.159.363.52.599.916.599s.757-.236.916-.599c1.699-3.884 5.577-6.601 10.084-6.601 6.071 0 11 4.929 11 11s-4.929 11-11 11c-4.507 0-8.385-2.717-10.084-6.601" fill="#0891b2"/></g></g></svg>